HIERARCHY
ROOT newVegas:Hips
{
	OFFSET 0.000000 96.479958 0.000000
	CHANNELS 6 Xposition Yposition Zposition Xrotation Yrotation Zrotation
	JOINT newVegas:Pelvis
	{
		OFFSET 0.000000 0.000000 0.000000
		CHANNELS 3 Xrotation Yrotation Zrotation
		JOINT newVegas:LeftUpLeg
		{
			OFFSET 18.735201 -5.666702 -4.541200
			CHANNELS 3 Xrotation Yrotation Zrotation
			JOINT newVegas:LeftLeg
			{
				OFFSET -0.021200 -31.938179 0.493100
				CHANNELS 3 Xrotation Yrotation Zrotation
				JOINT newVegas:LeftFoot
				{
					OFFSET 0.021200 -31.938179 -4.336299
					CHANNELS 3 Xrotation Yrotation Zrotation
					JOINT newVegas:LeftToeBase
					{
						OFFSET 0.943001 -26.722000 15.023500
						CHANNELS 3 Xrotation Yrotation Zrotation
						End Site
						{
							OFFSET 0.000000 30.670183 0.000000
						}
					}
				}
				JOINT newVegas:Left_PantLeg
				{
					OFFSET 0.663870 -9.044666 -1.108900
					CHANNELS 3 Xrotation Yrotation Zrotation
					End Site
					{
						OFFSET 1.415995 20.635357 0.000000
					}
				}
			}
		}
		JOINT newVegas:RightUpLeg
		{
			OFFSET -18.735201 -5.666702 -4.541200
			CHANNELS 3 Xrotation Yrotation Zrotation
			JOINT newVegas:RightLeg
			{
				OFFSET 0.018946 -31.938133 0.493100
				CHANNELS 3 Xrotation Yrotation Zrotation
				JOINT newVegas:RightFoot
				{
					OFFSET -0.018946 -31.938126 -4.336299
					CHANNELS 3 Xrotation Yrotation Zrotation
					JOINT newVegas:RightToeBase
					{
						OFFSET -0.943001 -26.722004 15.023500
						CHANNELS 3 Xrotation Yrotation Zrotation
						End Site
						{
							OFFSET 0.000000 30.670187 0.000000
						}
					}
				}
				JOINT newVegas:Right_PantLeg
				{
					OFFSET -0.661674 -9.044716 -1.108900
					CHANNELS 3 Xrotation Yrotation Zrotation
					End Site
					{
						OFFSET -1.415958 20.635269 0.000000
					}
				}
			}
		}
	}
	JOINT newVegas:Spine
	{
		OFFSET 0.000000 10.199997 -0.299500
		CHANNELS 3 Xrotation Yrotation Zrotation
		JOINT newVegas:Spine1
		{
			OFFSET 0.000000 11.900002 -1.516600
			CHANNELS 3 Xrotation Yrotation Zrotation
			JOINT newVegas:Spine2
			{
				OFFSET 0.000000 13.600006 -2.842500
				CHANNELS 3 Xrotation Yrotation Zrotation
				JOINT newVegas:Neck
				{
					OFFSET 0.000000 9.624100 -2.890100
					CHANNELS 3 Xrotation Yrotation Zrotation
					JOINT newVegas:Head
					{
						OFFSET 0.000000 14.068802 -1.351900
						CHANNELS 3 Xrotation Yrotation Zrotation
						JOINT newVegas:Hair_Back
						{
							OFFSET 0.000000 3.231903 -17.524799
							CHANNELS 3 Xrotation Yrotation Zrotation
							End Site
							{
								OFFSET 0.000000 19.849884 0.000000
							}
						}
						JOINT newVegas:Hair_Front
						{
							OFFSET 0.000000 31.260406 4.573800
							CHANNELS 3 Xrotation Yrotation Zrotation
							JOINT newVegas:Hair_Front1
							{
								OFFSET 0.000000 2.284103 11.993300
								CHANNELS 3 Xrotation Yrotation Zrotation
								JOINT newVegas:Hair_Front2
								{
									OFFSET 0.000000 2.284103 11.993300
									CHANNELS 3 Xrotation Yrotation Zrotation
									End Site
									{
										OFFSET 0.000000 12.208862 0.000000
									}
								}
							}
						}
						JOINT newVegas:Jowel
						{
							OFFSET 0.000000 -7.458206 6.864100
							CHANNELS 3 Xrotation Yrotation Zrotation
							End Site
							{
								OFFSET 0.000000 19.849884 0.000000
							}
						}
					}
				}
				JOINT newVegas:LeftShoulder
				{
					OFFSET 15.263000 10.923401 -0.547700
					CHANNELS 3 Xrotation Yrotation Zrotation
					JOINT newVegas:LeftArm
					{
						OFFSET 25.438599 -2.830597 -13.032500
						CHANNELS 3 Xrotation Yrotation Zrotation
						JOINT newVegas:LeftForeArm
						{
							OFFSET 29.960503 0.000000 0.000000
							CHANNELS 3 Xrotation Yrotation Zrotation
							JOINT newVegas:LeftHand
							{
								OFFSET 27.849251 0.000000 0.000000
								CHANNELS 3 Xrotation Yrotation Zrotation
								JOINT newVegas:LeftHandThumb1
								{
									OFFSET 4.487587 -3.305161 6.305391
									CHANNELS 3 Xrotation Yrotation Zrotation
									JOINT newVegas:LeftHandThumb2
									{
										OFFSET 5.480453 -3.164139 3.164143
										CHANNELS 3 Xrotation Yrotation Zrotation
										JOINT newVegas:LeftHandThumb3
										{
											OFFSET 5.159721 -2.978973 2.978967
											CHANNELS 3 Xrotation Yrotation Zrotation
											End Site
											{
												OFFSET 2.494507 5.926697 1.738678
											}
										}
									}
								}
								JOINT newVegas:LeftHandIndex1
								{
									OFFSET 18.578728 -0.527832 5.208049
									CHANNELS 3 Xrotation Yrotation Zrotation
									JOINT newVegas:LeftHandIndex2
									{
										OFFSET 3.192009 0.000000 0.000000
										CHANNELS 3 Xrotation Yrotation Zrotation
										JOINT newVegas:LeftHandIndex3
										{
											OFFSET 3.835129 0.000000 0.000000
											CHANNELS 3 Xrotation Yrotation Zrotation
											End Site
											{
												OFFSET -0.034599 3.816971 0.371180
											}
										}
									}
								}
								JOINT newVegas:LeftHandMiddle1
								{
									OFFSET 18.476105 0.000000 0.000000
									CHANNELS 3 Xrotation Yrotation Zrotation
									JOINT newVegas:LeftHandMiddle2
									{
										OFFSET 3.324875 0.000000 0.000000
										CHANNELS 3 Xrotation Yrotation Zrotation
										JOINT newVegas:LeftHandMiddle3
										{
											OFFSET 4.596550 0.000000 0.000000
											CHANNELS 3 Xrotation Yrotation Zrotation
											End Site
											{
												OFFSET 0.057701 4.578827 0.399218
											}
										}
									}
								}
								JOINT newVegas:LeftHandRing1
								{
									OFFSET 17.732719 0.121887 -4.201567
									CHANNELS 3 Xrotation Yrotation Zrotation
									JOINT newVegas:LeftHandRing2
									{
										OFFSET 2.733170 0.000000 0.000000
										CHANNELS 3 Xrotation Yrotation Zrotation
										JOINT newVegas:LeftHandRing3
										{
											OFFSET 3.178268 0.000000 0.000000
											CHANNELS 3 Xrotation Yrotation Zrotation
											End Site
											{
												OFFSET 0.119102 3.170624 0.185394
											}
										}
									}
								}
								JOINT newVegas:LeftHandPinky1
								{
									OFFSET 15.989624 -0.606689 -7.535461
									CHANNELS 3 Xrotation Yrotation Zrotation
									JOINT newVegas:LeftHandPinky2
									{
										OFFSET 2.538986 0.000000 0.000000
										CHANNELS 3 Xrotation Yrotation Zrotation
										JOINT newVegas:LeftHandPinky3
										{
											OFFSET 2.593102 0.000000 0.000000
											CHANNELS 3 Xrotation Yrotation Zrotation
											End Site
											{
												OFFSET -0.150902 2.584198 0.152708
											}
										}
									}
								}
							}
							JOINT newVegas:Left_Sleeve
							{
								OFFSET 0.267448 -0.649796 0.577675
								CHANNELS 3 Xrotation Yrotation Zrotation
								End Site
								{
									OFFSET 0.000000 15.991241 0.000000
								}
							}
							JOINT newVegas:Left_CapeC
							{
								OFFSET 15.715958 -8.608795 -6.935905
								CHANNELS 3 Xrotation Yrotation Zrotation
								JOINT newVegas:Left_CapeC1
								{
									OFFSET 0.000000 -8.688499 0.000000
									CHANNELS 3 Xrotation Yrotation Zrotation
									End Site
									{
										OFFSET 0.000000 8.688499 0.000000
									}
								}
							}
						}
						JOINT newVegas:Left_CapeB
						{
							OFFSET 26.118385 -8.608795 -7.079235
							CHANNELS 3 Xrotation Yrotation Zrotation
							JOINT newVegas:Left_CapeB1
							{
								OFFSET 0.000000 -8.688499 0.000000
								CHANNELS 3 Xrotation Yrotation Zrotation
								End Site
								{
									OFFSET 0.000000 8.688499 0.000000
								}
							}
						}
						JOINT newVegas:Left_CapeA
						{
							OFFSET 5.115639 -8.608795 -10.395809
							CHANNELS 3 Xrotation Yrotation Zrotation
							JOINT newVegas:Left_CapeA1
							{
								OFFSET 0.000000 -8.688499 0.000000
								CHANNELS 3 Xrotation Yrotation Zrotation
								End Site
								{
									OFFSET 0.000000 8.688499 0.000000
								}
							}
						}
					}
				}
				JOINT newVegas:RightShoulder
				{
					OFFSET -15.263000 10.923401 -0.547700
					CHANNELS 3 Xrotation Yrotation Zrotation
					JOINT newVegas:RightArm
					{
						OFFSET -25.438599 -2.830597 -13.032500
						CHANNELS 3 Xrotation Yrotation Zrotation
						JOINT newVegas:RightForeArm
						{
							OFFSET -29.960503 0.000000 0.000000
							CHANNELS 3 Xrotation Yrotation Zrotation
							JOINT newVegas:RightHand
							{
								OFFSET -27.849251 0.000000 0.000000
								CHANNELS 3 Xrotation Yrotation Zrotation
								JOINT newVegas:RightHandThumb1
								{
									OFFSET -4.487587 -3.305161 6.305391
									CHANNELS 3 Xrotation Yrotation Zrotation
									JOINT newVegas:RightHandThumb2
									{
										OFFSET -5.480453 -3.164139 3.164143
										CHANNELS 3 Xrotation Yrotation Zrotation
										JOINT newVegas:RightHandThumb3
										{
											OFFSET -5.159721 -2.978973 2.978967
											CHANNELS 3 Xrotation Yrotation Zrotation
											End Site
											{
												OFFSET -2.494507 5.926697 1.738678
											}
										}
									}
								}
								JOINT newVegas:RightHandIndex1
								{
									OFFSET -18.578728 -0.527832 5.208049
									CHANNELS 3 Xrotation Yrotation Zrotation
									JOINT newVegas:RightHandIndex2
									{
										OFFSET -3.192009 0.000000 0.000000
										CHANNELS 3 Xrotation Yrotation Zrotation
										JOINT newVegas:RightHandIndex3
										{
											OFFSET -3.835129 0.000000 0.000000
											CHANNELS 3 Xrotation Yrotation Zrotation
											End Site
											{
												OFFSET 0.034599 3.816971 0.371180
											}
										}
									}
								}
								JOINT newVegas:RightHandMiddle1
								{
									OFFSET -18.476105 0.000000 0.000000
									CHANNELS 3 Xrotation Yrotation Zrotation
									JOINT newVegas:RightHandMiddle2
									{
										OFFSET -3.324875 0.000000 0.000000
										CHANNELS 3 Xrotation Yrotation Zrotation
										JOINT newVegas:RightHandMiddle3
										{
											OFFSET -4.596550 0.000000 0.000000
											CHANNELS 3 Xrotation Yrotation Zrotation
											End Site
											{
												OFFSET -0.057701 4.578827 0.399218
											}
										}
									}
								}
								JOINT newVegas:RightHandRing1
								{
									OFFSET -17.732719 0.121887 -4.201567
									CHANNELS 3 Xrotation Yrotation Zrotation
									JOINT newVegas:RightHandRing2
									{
										OFFSET -2.733170 0.000000 0.000000
										CHANNELS 3 Xrotation Yrotation Zrotation
										JOINT newVegas:RightHandRing3
										{
											OFFSET -3.178268 0.000000 0.000000
											CHANNELS 3 Xrotation Yrotation Zrotation
											End Site
											{
												OFFSET -0.119102 3.170624 0.185394
											}
										}
									}
								}
								JOINT newVegas:RightHandPinky1
								{
									OFFSET -15.989624 -0.606689 -7.535461
									CHANNELS 3 Xrotation Yrotation Zrotation
									JOINT newVegas:RightHandPinky2
									{
										OFFSET -2.538986 0.000000 0.000000
										CHANNELS 3 Xrotation Yrotation Zrotation
										JOINT newVegas:RightHandPinky3
										{
											OFFSET -2.593102 0.000000 0.000000
											CHANNELS 3 Xrotation Yrotation Zrotation
											End Site
											{
												OFFSET 0.150902 2.584198 0.152708
											}
										}
									}
								}
							}
							JOINT newVegas:Right_CapeC
							{
								OFFSET -15.715958 -8.608795 -6.935905
								CHANNELS 3 Xrotation Yrotation Zrotation
								JOINT newVegas:Right_CapeC1
								{
									OFFSET 0.000000 -8.688499 0.000000
									CHANNELS 3 Xrotation Yrotation Zrotation
									End Site
									{
										OFFSET 0.000000 8.688499 0.000000
									}
								}
							}
							JOINT newVegas:Right_Sleeve
							{
								OFFSET -0.267448 -0.649994 0.577675
								CHANNELS 3 Xrotation Yrotation Zrotation
								End Site
								{
									OFFSET 0.000000 15.991302 0.000000
								}
							}
						}
						JOINT newVegas:Right_CapeA
						{
							OFFSET -5.115540 -8.608795 -10.395824
							CHANNELS 3 Xrotation Yrotation Zrotation
							JOINT newVegas:Right_CapeA1
							{
								OFFSET 0.000000 -8.688499 0.000000
								CHANNELS 3 Xrotation Yrotation Zrotation
								End Site
								{
									OFFSET 0.000000 8.688499 0.000000
								}
							}
						}
						JOINT newVegas:Right_CapeB
						{
							OFFSET -26.118187 -8.608795 -7.079266
							CHANNELS 3 Xrotation Yrotation Zrotation
							JOINT newVegas:Right_CapeB1
							{
								OFFSET 0.000000 -8.688499 0.000000
								CHANNELS 3 Xrotation Yrotation Zrotation
								End Site
								{
									OFFSET 0.000000 8.688499 0.000000
								}
							}
						}
					}
				}
				JOINT newVegas:Left_Collar
				{
					OFFSET 18.625099 8.655502 8.828100
					CHANNELS 3 Xrotation Yrotation Zrotation
					JOINT newVegas:Left_Collar1
					{
						OFFSET 14.783401 10.540405 -1.259500
						CHANNELS 3 Xrotation Yrotation Zrotation
						End Site
						{
							OFFSET 0.000000 18.199875 0.000000
						}
					}
				}
				JOINT newVegas:Collar_Back
				{
					OFFSET 0.000000 15.630707 -20.132601
					CHANNELS 3 Xrotation Yrotation Zrotation
					End Site
					{
						OFFSET 0.000000 22.523010 0.000000
					}
				}
				JOINT newVegas:Left_Peck
				{
					OFFSET 17.239599 -5.132599 25.482599
					CHANNELS 3 Xrotation Yrotation Zrotation
					End Site
					{
						OFFSET 0.000000 22.523010 0.000000
					}
				}
				JOINT newVegas:Right_Peck
				{
					OFFSET -17.239599 -5.132202 25.482599
					CHANNELS 3 Xrotation Yrotation Zrotation
					End Site
					{
						OFFSET 0.000000 22.523010 0.000000
					}
				}
				JOINT newVegas:Right_Collar
				{
					OFFSET -18.625099 8.655792 8.828100
					CHANNELS 3 Xrotation Yrotation Zrotation
					JOINT newVegas:Right_Collar1
					{
						OFFSET -14.783401 10.539993 -1.259500
						CHANNELS 3 Xrotation Yrotation Zrotation
						End Site
						{
							OFFSET 0.000000 18.199631 0.000000
						}
					}
				}
			}
		}
		JOINT newVegas:Belly
		{
			OFFSET 0.000000 -6.540398 9.014299
			CHANNELS 3 Xrotation Yrotation Zrotation
			End Site
			{
				OFFSET 0.000000 11.566666 0.000000
			}
		}
	}
	JOINT newVegas:ElvisFacialAnim_Joint
	{
		OFFSET 1.000000 -95.330101 -8.825800
		CHANNELS 3 Xrotation Yrotation Zrotation
		End Site
		{
			OFFSET 0.000000 35.315800 0.000000
		}
	}
}
MOTION
Frames: 4
Frame Time: 0.033333
5.365657 91.190315 5.652730 -8.485724 -22.330274 -4.721517 -0.000000 -0.000001 -0.000000 -22.898141 11.294991 15.687288 48.197435 8.936941 3.237599 -15.196011 1.988752 -9.549274 -0.000000 0.000000 -0.000000 0.000002 -0.000000 0.000000 -25.297098 -19.591136 -14.541022 45.555412 -5.563789 -8.714548 -6.235550 -1.623615 13.385018 0.000000 0.000003 -0.000000 0.000001 0.000003 -0.000002 12.660471 3.406854 2.739838 4.967901 1.004109 0.365881 4.973943 0.982739 0.310095 -3.842652 1.545981 0.283718 -3.842654 1.545981 0.283716 0.000000 -0.000001 -0.000001 -3.842722 1.545981 0.283719 -3.842573 1.545968 0.283721 0.000000 -0.000001 0.000000 0.000000 -0.000001 -0.000000 2.730412 -4.659418 -4.616267 -31.506823 -42.903522 -65.360218 -0.000012 -55.870459 -0.000002 -65.687234 -13.052454 49.936350 -1.540043 3.690186 6.142348 3.939062 7.948698 0.746824 -0.000000 0.000001 -0.000003 2.003740 4.859887 -44.792903 2.003738 4.859876 -44.792896 -0.000001 0.000001 -0.000000 2.002372 4.858483 -44.776791 2.005099 4.861227 -44.808995 0.000001 0.000002 -0.000000 2.003750 4.859848 -44.792900 2.003739 4.859866 -44.792903 -0.000000 0.000001 -0.000001 4.872313 7.742527 -44.597474 2.021897 0.790102 -45.160763 0.000002 -0.000002 0.000001 -0.000003 0.000003 0.000001 -0.000003 0.000003 0.000001 -0.000003 0.000002 0.000001 -0.000000 -0.000004 0.000004 -0.000000 -0.000005 0.000001 -0.000000 -0.000004 0.000004 -0.000001 -0.000003 0.000004 1.620558 1.458102 -0.595188 -35.946152 68.708267 65.176267 -0.000009 55.124452 0.000019 -55.161967 3.168760 -22.688215 -1.849246 -3.581802 -6.586142 4.637192 -8.634133 -0.225413 0.000000 -0.000002 -0.000001 4.561472 -6.527316 69.863881 4.561457 -6.527313 69.863894 0.000001 -0.000000 0.000003 4.561463 -6.527290 69.863888 4.561449 -6.527310 69.863888 0.000000 0.000001 -0.000001 4.561460 -6.527283 69.863874 4.561469 -6.527307 69.863888 0.000002 -0.000003 0.000001 4.561474 -6.527327 69.863881 4.561445 -6.527302 69.863888 -0.000001 -0.000002 0.000003 -0.000002 -0.000001 -0.000001 -0.000002 -0.000001 -0.000003 -0.000002 -0.000000 -0.000001 -0.000001 0.000002 0.000002 -0.000001 0.000003 0.000001 -0.000001 0.000002 0.000002 -0.000001 0.000003 0.000003 0.000001 -0.000001 0.000000 0.000001 -0.000001 0.000000 0.000001 -0.000001 0.000000 0.000001 -0.000001 0.000000 0.000001 -0.000001 0.000000 0.000001 -0.000001 0.000000 0.000001 -0.000001 0.000000 -0.000000 -0.000000 0.000000 -0.000000 -0.000001 -0.000000 
5.367618 91.204430 5.652587 -8.541771 -22.293932 -4.693305 -0.000001 -0.000000 -0.000000 -22.747646 11.093504 15.706601 48.136930 8.952324 2.976022 -15.097098 1.981957 -9.562856 0.000000 0.000000 -0.000000 0.000000 -0.000000 -0.000000 -25.183230 -19.584538 -14.591772 45.506388 -5.585577 -8.659045 -6.325060 -1.623809 13.321763 0.000000 -0.000001 0.000000 0.000001 -0.000003 0.000002 12.708726 3.185840 2.587869 4.952382 0.948501 0.523161 4.960900 0.929604 0.468970 -3.798783 1.609093 0.095054 -3.798812 1.609094 0.095063 0.000000 -0.000001 0.000000 -3.798627 1.609115 0.095044 -3.798782 1.609065 0.095059 -0.000000 -0.000001 0.000000 0.000000 -0.000001 0.000001 2.629835 -4.289763 -5.539904 -30.781101 -43.498026 -64.374560 0.000010 -55.738978 0.000002 -65.308022 -12.910202 49.839812 -1.540043 3.690184 6.142346 3.939063 7.948700 0.746825 0.000002 0.000004 -0.000001 2.003739 4.859887 -44.792903 2.003741 4.859876 -44.792896 0.000002 -0.000001 0.000001 2.002370 4.858482 -44.776794 2.005098 4.861228 -44.808998 -0.000000 0.000000 -0.000000 2.003746 4.859853 -44.792900 2.003739 4.859871 -44.792910 -0.000003 -0.000001 -0.000001 4.872307 7.742528 -44.597474 2.021897 0.790102 -45.160763 0.000003 -0.000003 -0.000002 0.000002 -0.000003 -0.000002 0.000002 -0.000003 -0.000002 0.000002 -0.000003 -0.000002 0.000002 0.000000 -0.000002 0.000002 -0.000001 -0.000004 0.000002 0.000000 -0.000002 0.000001 0.000001 -0.000002 1.749949 2.035426 -0.774340 -35.276950 68.648742 64.565942 0.000013 54.818156 -0.000022 -55.260257 3.330369 -22.652350 -1.849246 -3.581796 -6.586142 4.637191 -8.634128 -0.225411 -0.000000 -0.000002 0.000001 4.561472 -6.527314 69.863881 4.561457 -6.527315 69.863894 0.000003 0.000001 -0.000001 4.561464 -6.527290 69.863888 4.561452 -6.527307 69.863881 -0.000001 -0.000001 0.000002 4.561460 -6.527280 69.863874 4.561468 -6.527307 69.863894 0.000001 -0.000003 0.000006 4.561476 -6.527323 69.863881 4.561448 -6.527308 69.863888 0.000002 -0.000000 0.000005 -0.000003 0.000000 -0.000001 -0.000003 0.000000 -0.000001 -0.000003 0.000001 -0.000000 -0.000001 0.000000 -0.000001 -0.000001 0.000001 -0.000001 -0.000001 0.000000 -0.000001 -0.000001 0.000001 0.000001 -0.000000 0.000001 -0.000001 -0.000000 0.000001 -0.000001 -0.000000 0.000001 -0.000001 -0.000000 0.000001 -0.000001 -0.000000 0.000001 -0.000001 -0.000000 0.000001 -0.000001 -0.000000 0.000001 -0.000001 0.000001 -0.000004 0.000000 -0.000001 -0.000000 -0.000000 
5.373704 91.211708 5.654543 -8.596263 -22.259557 -4.664040 0.000000 -0.000001 0.000000 -22.780947 11.495899 15.697554 48.009096 8.597284 3.289267 -14.989146 1.990594 -9.649377 0.000000 -0.000000 -0.000000 0.000000 -0.000000 -0.000001 -25.056585 -19.462306 -14.612901 45.495542 -5.709426 -8.575038 -6.433929 -1.636563 13.309061 0.000000 0.000003 -0.000000 0.000001 0.000002 -0.000001 12.726548 3.040165 2.521111 4.964444 0.910977 0.596264 4.973632 0.893975 0.543251 -3.779966 1.632565 0.025890 -3.779971 1.632560 0.025867 -0.000000 0.000000 -0.000000 -3.779962 1.632474 0.025911 -3.779952 1.632620 0.025882 -0.000000 0.000000 0.000000 -0.000000 0.000000 -0.000000 2.576873 -4.154419 -6.064709 -30.211255 -43.898241 -63.608411 -0.000018 -55.513250 -0.000031 -64.993218 -12.809690 49.756040 -1.540041 3.690183 6.142345 3.939065 7.948698 0.746828 0.000001 0.000002 -0.000001 2.003740 4.859886 -44.792900 2.003739 4.859876 -44.792896 0.000003 -0.000001 -0.000001 2.002371 4.858482 -44.776791 2.005099 4.861231 -44.808998 -0.000002 -0.000000 -0.000001 2.003750 4.859850 -44.792903 2.003739 4.859870 -44.792907 -0.000002 -0.000002 0.000001 4.872312 7.742524 -44.597474 2.021897 0.790104 -45.160767 0.000003 -0.000002 0.000001 -0.000001 0.000000 -0.000000 -0.000001 0.000000 -0.000000 -0.000001 -0.000001 0.000000 0.000003 0.000002 -0.000003 0.000003 0.000001 -0.000005 0.000003 0.000002 -0.000003 0.000002 0.000003 -0.000003 1.824748 2.365049 -0.876028 -35.022492 68.662696 64.272948 -0.000008 54.529273 0.000003 -55.346563 3.363690 -22.579058 -1.849244 -3.581795 -6.586141 4.637193 -8.634128 -0.225409 -0.000000 -0.000003 -0.000001 4.561473 -6.527313 69.863881 4.561456 -6.527318 69.863894 0.000000 0.000002 -0.000002 4.561464 -6.527288 69.863894 4.561453 -6.527309 69.863888 0.000000 -0.000000 -0.000001 4.561461 -6.527278 69.863881 4.561467 -6.527306 69.863894 -0.000003 0.000000 0.000003 4.561473 -6.527324 69.863881 4.561447 -6.527302 69.863894 0.000002 -0.000004 -0.000001 -0.000004 0.000002 -0.000000 -0.000004 0.000001 0.000001 -0.000004 0.000003 0.000001 0.000001 0.000000 0.000001 0.000001 0.000001 0.000002 0.000001 0.000000 0.000001 0.000001 0.000001 0.000003 0.000000 0.000002 -0.000000 0.000000 0.000002 -0.000000 0.000000 0.000002 -0.000000 0.000000 0.000002 -0.000000 0.000000 0.000002 -0.000000 0.000000 0.000002 -0.000000 0.000000 0.000002 -0.000000 -0.000000 0.000000 -0.000000 0.000000 -0.000001 0.000000 
5.392833 91.216888 5.658778 -8.649129 -22.227818 -4.634906 0.000000 0.000002 0.000000 -22.691710 11.453058 15.729089 47.968582 8.522690 3.135418 -14.904376 1.988856 -9.677118 0.000000 0.000000 -0.000000 0.000002 0.000000 0.000000 -24.944150 -19.353384 -14.626510 45.486604 -5.815031 -8.533944 -6.552264 -1.654860 13.319345 -0.000000 0.000002 -0.000000 -0.000000 0.000002 -0.000002 12.760978 3.024226 2.536309 4.955830 0.901218 0.602825 4.964304 0.885915 0.551857 -3.777433 1.621159 0.048760 -3.777430 1.621162 0.048756 -0.000000 0.000001 -0.000000 -3.777432 1.621146 0.048761 -3.777289 1.621174 0.048752 0.000000 -0.000000 0.000000 -0.000000 0.000001 -0.000000 2.574851 -4.256548 -6.215613 -29.986846 -43.989246 -63.357429 -0.000018 -55.119954 -0.000030 -64.601302 -12.682837 49.616212 -1.540044 3.690185 6.142349 3.939061 7.948697 0.746825 -0.000002 0.000001 -0.000003 2.003738 4.859885 -44.792903 2.003740 4.859872 -44.792896 0.000000 -0.000001 0.000001 2.002371 4.858480 -44.776791 2.005101 4.861228 -44.808995 -0.000002 0.000001 -0.000000 2.003749 4.859851 -44.792900 2.003737 4.859872 -44.792910 -0.000002 -0.000001 -0.000000 4.872312 7.742527 -44.597474 2.021900 0.790100 -45.160763 -0.000001 -0.000005 0.000003 0.000000 0.000002 -0.000001 0.000000 0.000002 -0.000001 -0.000001 0.000001 -0.000001 0.000001 0.000001 -0.000005 0.000001 -0.000000 -0.000008 0.000001 0.000001 -0.000005 -0.000000 0.000002 -0.000005 1.833346 2.409189 -0.893363 -34.975234 68.682531 64.211974 0.000024 54.311168 -0.000019 -55.360985 3.287748 -22.469654 -1.849246 -3.581799 -6.586140 4.637190 -8.634122 -0.225411 -0.000000 0.000000 -0.000002 4.561472 -6.527312 69.863881 4.561457 -6.527316 69.863894 0.000000 0.000001 -0.000000 4.561463 -6.527293 69.863894 4.561452 -6.527310 69.863888 -0.000001 0.000001 0.000001 4.561460 -6.527281 69.863881 4.561462 -6.527307 69.863894 -0.000002 -0.000003 -0.000002 4.561476 -6.527325 69.863874 4.561450 -6.527302 69.863894 0.000000 0.000003 -0.000003 -0.000004 0.000002 0.000001 -0.000004 0.000001 -0.000001 -0.000003 0.000002 -0.000000 -0.000001 0.000003 -0.000003 -0.000001 0.000004 -0.000003 -0.000001 0.000003 -0.000003 -0.000001 0.000004 -0.000002 0.000000 0.000000 0.000000 0.000000 0.000000 0.000000 0.000000 0.000000 0.000000 0.000000 0.000000 0.000000 0.000000 0.000000 0.000000 0.000000 0.000000 0.000000 0.000000 0.000000 0.000000 0.000000 -0.000000 -0.000000 0.000000 0.000002 0.000000 
